<svg width="10" height="19" viewBox="0 0 10 19" fill="none" xmlns="http://www.w3.org/2000/svg">
<path d="M0.00203462 0.677829C-0.0195403 0.40977 0.132105 0.157768 0.379057 0.0512972C0.626009 -0.0551733 0.913351 0.0075653 1.09345 0.207279L9.4588 8.57262C9.57691 8.69035 9.6433 8.85026 9.6433 9.01703C9.6433 9.1838 9.57691 9.34371 9.4588 9.46144L1.09345 17.8268C0.923473 18.0001 0.668807 18.0598 0.439535 17.9801C0.210263 17.9004 0.0475148 17.6956 0.0216409 17.4543C0.00200877 17.2622 0.0719154 17.0717 0.211168 16.938L8.1321 9.01703L0.211168 1.0961C0.0901659 0.98883 0.0152462 0.838991 0.00203462 0.677829Z" fill="#151515"/>
</svg>
