<svg width="20" height="20" viewBox="0 0 20 20" fill="none" xmlns="http://www.w3.org/2000/svg">
<path fill-rule="evenodd" clip-rule="evenodd" d="M10 0C4.5 0 0 4.5 0 10C0 15.5 4.5 20 10 20C15.5 20 20 15.5 20 10C20 4.5 15.5 0 10 0ZM9 17.9C5.1 17.4 2 14 2 10C2 9.4 2.1 8.8 2.2 8.2L7 13V14C7 15.1 7.9 16 9 16V17.9ZM15.9 15.4C15.6 14.6 14.9 14 14 14H13V11C13 10.4 12.6 10 12 10H6V8H8C8.6 8 9 7.6 9 7V5H11C12.1 5 13 4.1 13 3V2.6C15.9 3.8 18 6.7 18 10C18 12.1 17.2 14 15.9 15.4Z" fill="white" fill-opacity="0.508548"/>
</svg>
