<svg width="24" height="24" viewBox="0 0 24 24" fill="none" xmlns="http://www.w3.org/2000/svg">
<g opacity="0.496773">
<path fill-rule="evenodd" clip-rule="evenodd" d="M21.6458 12.105C21.6458 12.7979 21.5704 13.4719 21.4263 14.1238C21.7936 14.854 22.0004 15.6754 22 16.5457C22 19.5581 19.5237 22 16.4684 22C15.5221 22 14.6321 21.7656 13.8528 21.3533C13.2864 21.4565 12.7038 21.5106 12.1065 21.5106C6.83744 21.5106 2.56717 17.3 2.56717 12.105C2.56717 11.4575 2.63313 10.8244 2.76016 10.2138C2.27809 9.40411 2 8.46193 2 7.45553C2 4.44234 4.47674 2 7.53246 2C8.61387 2 9.62322 2.3079 10.475 2.8378C11.0063 2.74828 11.5511 2.70051 12.1069 2.70051C17.3755 2.70051 21.6458 6.91118 21.6458 12.105ZM15.0612 18.0495C15.9065 17.7034 16.5587 17.2153 16.9993 16.5999C17.4423 15.9829 17.6674 15.2755 17.6674 14.5024C17.6674 13.8544 17.5371 13.2972 17.2794 12.8456C17.0225 12.3952 16.6605 12.0191 16.2041 11.726C15.7554 11.4382 15.2074 11.1921 14.5714 10.9914C13.9448 10.7931 13.2343 10.6104 12.4623 10.4466C11.8524 10.3077 11.4078 10.2006 11.1431 10.1275C10.8846 10.0576 10.6252 9.95929 10.3748 9.83445C10.1338 9.71442 9.94202 9.57231 9.80684 9.40812C9.67777 9.25397 9.61507 9.07573 9.61507 8.86096C9.61507 8.51131 9.80888 8.21625 10.2067 7.95974C10.6195 7.69198 11.1761 7.55709 11.8593 7.55709C12.5959 7.55709 13.1317 7.67793 13.4529 7.91919C13.7831 8.16688 14.071 8.51854 14.3088 8.96333C14.5144 9.31218 14.6997 9.55465 14.878 9.71161C15.0698 9.8778 15.3466 9.96331 15.6996 9.96331C16.0885 9.96331 16.4175 9.82762 16.6793 9.56027C16.9394 9.29331 17.0705 8.98782 17.0705 8.65141C17.0705 8.30256 16.9704 7.94127 16.7733 7.57917C16.5771 7.21949 16.2644 6.87465 15.8454 6.55109C15.4289 6.23034 14.8992 5.96941 14.2701 5.77672C13.6443 5.58604 12.896 5.48809 12.0442 5.48809C10.9778 5.48809 10.0361 5.63461 9.24497 5.92325C8.44287 6.21469 7.81951 6.64182 7.39321 7.19058C6.96325 7.74216 6.74542 8.38325 6.74542 9.0938C6.74542 9.83967 6.95348 10.4723 7.36268 10.9785C7.76576 11.4755 8.31705 11.8737 9.00189 12.1612C9.67085 12.441 10.5112 12.6891 11.5022 12.8978C12.2298 13.0484 12.8186 13.1929 13.2518 13.3257C13.6679 13.4546 14.0095 13.6397 14.2705 13.8793C14.5177 14.1094 14.6378 14.4004 14.6378 14.7717C14.6378 15.2414 14.4081 15.6256 13.9326 15.9451C13.4464 16.2727 12.7995 16.4385 12.0104 16.4385C11.4379 16.4385 10.9713 16.3562 10.6252 16.1952C10.2816 16.0346 10.0129 15.8295 9.82517 15.5846C9.63014 15.3321 9.44651 15.0098 9.27713 14.6272C9.12526 14.2768 8.93756 14.005 8.7181 13.8207C8.48847 13.6296 8.20549 13.5333 7.87773 13.5333C7.4779 13.5333 7.14322 13.6561 6.88182 13.8986C6.61798 14.1431 6.48444 14.4421 6.48444 14.7862C6.48444 15.3382 6.68964 15.9098 7.09436 16.4851C7.49582 17.0571 8.0239 17.5188 8.66517 17.8596C9.56133 18.3285 10.7107 18.5665 12.0808 18.5665C13.2217 18.5665 14.2245 18.3923 15.0612 18.0495Z" fill="white"/>
</g>
</svg>
