<svg width="20" height="20" viewBox="0 0 20 20" fill="none" xmlns="http://www.w3.org/2000/svg">
<path fill-rule="evenodd" clip-rule="evenodd" d="M15 0H0V20H20V5L15 0ZM2 8V2H14V6H18V8H2ZM2 17V18H18V17H2ZM2.50586 9.98926H5.07959C5.64014 9.98926 6.05998 10.1226 6.33911 10.3892C6.61825 10.6558 6.75781 11.0352 6.75781 11.5273C6.75781 12.0332 6.60571 12.4285 6.30151 12.7134C5.99731 12.9982 5.53304 13.1406 4.90869 13.1406H4.06104V15H2.50586V9.98926ZM4.06104 12.1255H4.44043C4.73893 12.1255 4.94857 12.0736 5.06934 11.97C5.1901 11.8663 5.25049 11.7336 5.25049 11.5718C5.25049 11.4145 5.19808 11.2813 5.09326 11.1719C4.98844 11.0625 4.79134 11.0078 4.50195 11.0078H4.06104V12.1255ZM8.08838 9.98926H10.3887C10.8421 9.98926 11.2084 10.0508 11.4875 10.1738C11.7667 10.2969 11.9974 10.4735 12.1797 10.7036C12.362 10.9338 12.4941 11.2015 12.5762 11.5068C12.6582 11.8122 12.6992 12.1357 12.6992 12.4775C12.6992 13.013 12.6383 13.4283 12.5164 13.7234C12.3944 14.0185 12.2253 14.2657 12.0088 14.4651C11.7923 14.6645 11.5599 14.7972 11.3115 14.8633C10.972 14.9544 10.6644 15 10.3887 15H8.08838V9.98926ZM9.63672 11.124V13.8618H10.0161C10.3397 13.8618 10.5698 13.8259 10.7065 13.7542C10.8433 13.6824 10.9504 13.557 11.0278 13.3782C11.1053 13.1993 11.144 12.9093 11.144 12.5083C11.144 11.9774 11.0575 11.6139 10.8843 11.418C10.7111 11.222 10.424 11.124 10.0229 11.124H9.63672ZM14.0195 9.98926H17.8477V11.0659H15.5747V11.9409H17.5161V12.9526H15.5747V15H14.0195V9.98926Z" fill="#3C7DD7"/>
</svg>
