<svg width="16" height="16" viewBox="0 0 16 16" fill="none" xmlns="http://www.w3.org/2000/svg">
<path fill-rule="evenodd" clip-rule="evenodd" d="M15.6614 0.338623C15.2099 -0.112874 14.4779 -0.112875 14.0264 0.338623L8 6.36498L1.97364 0.338623C1.52214 -0.112874 0.79012 -0.112874 0.338623 0.338623C-0.112874 0.79012 -0.112875 1.52214 0.338623 1.97364L6.36498 8L0.338623 14.0264C-0.112874 14.4779 -0.112874 15.2099 0.338623 15.6614C0.79012 16.1129 1.52214 16.1129 1.97364 15.6614L8 9.63502L14.0264 15.6614C14.4779 16.1129 15.2099 16.1129 15.6614 15.6614C16.1129 15.2099 16.1129 14.4779 15.6614 14.0264L9.63502 8L15.6614 1.97364C16.1129 1.52214 16.1129 0.79012 15.6614 0.338623Z" fill="#DC493A"/>
</svg>
