<svg width="27" height="27" viewBox="0 0 27 27" fill="none" xmlns="http://www.w3.org/2000/svg">
<path fill-rule="evenodd" clip-rule="evenodd" d="M0.582637 0.582637C-0.194212 1.35949 -0.194209 2.61901 0.58264 3.39586L10.6868 13.5L0.582637 23.6041C-0.194211 24.381 -0.194212 25.6405 0.582637 26.4174C1.35949 27.1942 2.61901 27.1942 3.39586 26.4174L13.5 16.3132L23.6041 26.4174C24.381 27.1942 25.6405 27.1942 26.4174 26.4174C27.1942 25.6405 27.1942 24.381 26.4174 23.6041L16.3132 13.5L26.4174 3.39586C27.1942 2.61901 27.1942 1.35949 26.4174 0.582637C25.6405 -0.194212 24.381 -0.194209 23.6041 0.58264L13.5 10.6868L3.39586 0.582637C2.61901 -0.194212 1.35949 -0.194212 0.582637 0.582637Z" fill="white"/>
</svg>
